<?xml version="1.0" standalone="no"?>
<!DOCTYPE svg PUBLIC "-//W3C//DTD SVG 20010904//EN"
 "http://www.w3.org/TR/2001/REC-SVG-20010904/DTD/svg10.dtd">
<svg version="1.0" xmlns="http://www.w3.org/2000/svg"
 width="512.000000pt" height="512.000000pt" viewBox="0 0 512.000000 512.000000"
 preserveAspectRatio="xMidYMid meet">
<metadata>
Created by potrace 1.14, written by Peter Selinger 2001-2017
</metadata>
<g transform="translate(0.000000,512.000000) scale(0.100000,-0.100000)"
fill="#000000" stroke="none">
<path d="M2310 4624 c-413 -56 -777 -214 -1080 -468 -299 -251 -535 -596 -645
-946 -79 -248 -108 -448 -101 -705 6 -186 9 -220 42 -375 160 -749 722 -1354
1456 -1566 200 -57 336 -77 548 -78 165 -1 283 5 346 18 12 2 38 7 59 10 146
24 413 110 525 170 14 8 55 30 92 49 360 190 687 532 877 917 87 176 164 419
186 591 3 24 10 73 14 109 9 66 6 396 -3 460 -3 19 -8 51 -11 70 -36 258 -164
589 -314 815 -224 338 -533 602 -892 764 -145 65 -396 139 -529 156 -30 4 -64
9 -75 12 -50 11 -407 9 -495 -3z m485 -157 c11 -2 42 -8 68 -11 248 -36 544
-154 764 -302 382 -258 652 -631 782 -1079 50 -173 68 -327 65 -545 -1 -102
-5 -201 -9 -220 -46 -250 -88 -393 -170 -565 -188 -397 -499 -715 -888 -905
-182 -89 -370 -149 -567 -180 -112 -19 -396 -20 -525 -3 -576 75 -1088 408
-1395 908 -55 89 -140 268 -173 365 -30 87 -72 253 -82 323 -3 27 -9 59 -12
70 -11 49 -10 386 2 472 19 135 23 153 45 240 77 291 213 551 408 778 67 78
190 197 257 248 17 13 32 26 35 29 14 17 190 127 271 169 150 79 346 151 482
176 12 3 45 9 72 15 28 5 77 12 110 16 33 3 61 7 63 9 5 5 375 -3 397 -8z"/>
<path d="M2313 4285 c-96 -26 -208 -74 -293 -127 -98 -60 -246 -201 -309 -296
-177 -264 -222 -606 -119 -897 30 -84 72 -165 87 -166 327 -16 571 -185 678
-469 97 -260 36 -538 -162 -735 -121 -120 -243 -183 -405 -209 -96 -15 -220
-11 -290 9 -3 1 -25 7 -50 14 -92 26 -201 89 -276 158 -63 58 -67 56 -12 -7
31 -36 67 -74 80 -85 162 -139 321 -217 533 -260 52 -11 278 -14 330 -5 107
18 122 22 195 46 96 32 197 83 280 141 72 51 189 167 233 230 l28 41 -29 58
c-238 472 107 1023 641 1025 295 2 573 -184 675 -451 44 -115 47 -134 46 -270
0 -109 -4 -147 -21 -197 -12 -35 -19 -63 -17 -63 10 0 70 169 80 225 20 108
23 142 19 250 -2 66 -6 130 -9 143 -21 93 -39 155 -58 202 -146 368 -492 624
-886 656 l-77 6 -33 -45 c-348 -485 -1103 -370 -1281 194 -115 366 81 747 454
880 60 21 41 23 -32 4z"/>
</g>
</svg>
